<svg width="36" height="41" viewBox="0 0 36 41" fill="none" xmlns="http://www.w3.org/2000/svg">
<path d="M31.3149 7.95022C31.2911 7.73617 31.1006 7.64103 30.9577 7.64103C30.8149 7.64103 27.6953 7.4032 27.6953 7.4032C27.6953 7.4032 25.5282 5.23886 25.2663 5.0248C25.0281 4.78696 24.5757 4.85831 24.3851 4.90588C24.3613 4.90588 23.9089 5.04859 23.1706 5.28642C22.4324 3.16965 21.1703 1.24315 18.908 1.24315H18.6937C18.0745 0.434498 17.2648 0.0539551 16.5981 0.0539551C11.359 0.0539551 8.83478 6.59454 8.04893 9.9243C6.00095 10.5665 4.54831 10.9946 4.38161 11.0659C3.23855 11.4227 3.21474 11.4465 3.07186 12.5167C2.95279 13.3254 -0.0239258 36.3245 -0.0239258 36.3245L23.1468 40.6532L35.7205 37.9418C35.7443 37.8942 31.3388 8.16428 31.3149 7.95022ZM21.8847 5.6194C21.3132 5.78589 20.6226 5.99994 19.932 6.23778V5.80967C19.932 4.52533 19.7653 3.47884 19.4557 2.6464C20.6464 2.78911 21.3846 4.09723 21.8847 5.6194ZM18.0031 2.90803C18.3126 3.71668 18.527 4.85831 18.527 6.42805V6.66589C17.241 7.07022 15.8836 7.47454 14.4786 7.92644C15.2645 4.92966 16.7647 3.45506 18.0031 2.90803ZM16.479 1.43342C16.7171 1.43342 16.9553 1.52856 17.1458 1.67126C15.455 2.45613 13.669 4.4302 12.9307 8.4259C11.8115 8.78266 10.7399 9.09186 9.71589 9.42483C10.5732 6.38049 12.7164 1.43342 16.479 1.43342Z" fill="#95BF47"/>
</svg>
