<svg width="105" height="34" viewBox="0 0 105 34" fill="none" xmlns="http://www.w3.org/2000/svg">
<path d="M9.38986 15.1718C8.12774 14.5059 7.48477 13.9113 7.48477 13.1264C7.48477 12.1275 8.38969 11.4853 9.7947 11.4853C11.4378 11.4853 12.8905 12.1513 12.8905 12.1513L14.0335 8.65503C14.0335 8.65503 12.9857 7.84638 9.88995 7.84638C5.57967 7.84638 2.57914 10.3199 2.57914 13.7924C2.57914 15.7664 3.98415 17.2648 5.84162 18.3351C7.36569 19.1675 7.8896 19.7859 7.8896 20.6897C7.8896 21.6173 7.12756 22.3784 5.72255 22.3784C3.65075 22.3784 1.67421 21.3081 1.67421 21.3081L0.459717 24.8043C0.459717 24.8043 2.26956 26.0173 5.31771 26.0173C9.74707 26.0173 12.9619 23.8292 12.9619 19.9048C12.9143 17.7643 11.3188 16.2897 9.38986 15.1718ZM27.0596 7.79881C24.8688 7.79881 23.1542 8.8453 21.8444 10.415L21.7968 10.3913L23.7019 0.49714H18.7725L13.9621 25.7081H18.8915L20.5347 17.0983C21.1777 13.8399 22.8684 11.8183 24.4401 11.8183C25.5594 11.8183 25.988 12.5794 25.988 13.6497C25.988 14.3156 25.9404 15.1718 25.7737 15.8378L23.9162 25.7081H28.8457L30.7746 15.5286C30.9889 14.4583 31.1318 13.174 31.1318 12.294C31.108 9.46368 29.6553 7.79881 27.0596 7.79881ZM42.2766 7.79881C36.3232 7.79881 32.3939 13.1502 32.3939 19.12C32.3939 22.9254 34.7515 26.0173 39.1808 26.0173C45.0152 26.0173 48.9445 20.8086 48.9445 14.6962C48.9683 11.1523 46.9203 7.79881 42.2766 7.79881ZM39.8476 22.2595C38.1568 22.2595 37.4662 20.8324 37.4662 19.0248C37.4662 16.1945 38.9189 11.6042 41.6098 11.6042C43.3482 11.6042 43.9436 13.1264 43.9436 14.5772C43.9436 17.5978 42.4433 22.2595 39.8476 22.2595ZM61.5895 7.79881C58.2556 7.79881 56.3743 10.748 56.3743 10.748H56.3267L56.6125 8.108H52.2308C52.0164 9.8918 51.6116 12.627 51.2306 14.6486L47.8252 32.7006H52.7547L54.1358 25.3989H54.2549C54.2549 25.3989 55.2789 26.0411 57.1364 26.0411C62.9469 26.0411 66.7333 20.0951 66.7333 14.1016C66.7095 10.7718 65.2092 7.79881 61.5895 7.79881ZM56.8744 22.307C55.5885 22.307 54.8264 21.5697 54.8264 21.5697L55.6361 16.9794C56.2076 13.8875 57.827 11.8659 59.5416 11.8659C61.0656 11.8659 61.5181 13.2691 61.5181 14.5772C61.5419 17.7643 59.6368 22.307 56.8744 22.307ZM73.7584 0.73498C72.1866 0.73498 70.9245 1.99553 70.9245 3.58905C70.9245 5.03988 71.8533 6.06258 73.2583 6.06258H73.3059C74.8538 6.06258 76.1635 5.01609 76.1874 3.20851C76.2112 1.75769 75.2348 0.73498 73.7584 0.73498ZM66.8524 25.6843H71.7818L75.1157 8.17935H70.1625L66.8524 25.6843ZM87.6894 8.15557H84.2602L84.4269 7.34692C84.7127 5.65825 85.7128 4.18365 87.3798 4.18365C88.2609 4.18365 88.9515 4.44527 88.9515 4.44527L89.9041 0.568489C89.9041 0.568489 89.0706 0.140381 87.2131 0.140381C85.4747 0.140381 83.7125 0.639842 82.3789 1.78147C80.6881 3.20851 79.9023 5.27771 79.5213 7.3707L79.3784 8.17935H77.0685L76.3302 11.9134H78.6402L76.0207 25.7081H80.9501L83.5696 11.9134H86.975L87.6894 8.15557ZM99.5724 8.17935C99.5724 8.17935 96.4766 15.9567 95.1193 20.214H95.0716C94.9764 18.8346 93.8571 8.17935 93.8571 8.17935H88.6657L91.6425 24.2097C91.6901 24.5665 91.6663 24.7806 91.5234 25.0184C90.9519 26.1362 89.9755 27.2065 88.8324 27.9914C87.9037 28.6573 86.8559 29.1092 86.0224 29.3946L87.4036 33.5806C88.4038 33.3666 90.4994 32.5341 92.2378 30.893C94.4763 28.8 96.5719 25.5416 98.7151 21.1178L104.74 8.15557H99.5724V8.17935Z" fill="black"/>
</svg>
