<svg width="14" height="22" viewBox="0 0 14 22" fill="none" xmlns="http://www.w3.org/2000/svg">
<path d="M13.9081 1.53838L12.384 6.12868C12.384 6.12868 11.0028 5.39138 9.35968 5.39138C6.90687 5.39138 6.7878 6.93734 6.7878 7.31788C6.7878 9.41087 12.265 10.2195 12.265 15.1428C12.265 19.0196 9.81214 21.5169 6.50203 21.5169C2.50133 21.5169 0.500977 19.0434 0.500977 19.0434L1.57259 15.5233C1.57259 15.5233 3.6682 17.3309 5.43042 17.3309C6.59729 17.3309 7.07356 16.4271 7.07356 15.7612C7.07356 13.026 2.59658 12.9071 2.59658 8.38816C2.59658 4.60651 5.31135 0.943784 10.8123 0.943784C12.8603 0.92 13.9081 1.53838 13.9081 1.53838Z" fill="white"/>
</svg>
