<svg width="24" height="36" viewBox="0 0 24 36" fill="none" xmlns="http://www.w3.org/2000/svg">
<path fill-rule="evenodd" clip-rule="evenodd" d="M13.6776 0.244385C10.7504 0.244385 8.8686 1.62197 7.82316 2.58029L7.43486 0.723545H0.863525V35.6424L8.33095 34.0552L8.36081 25.58C9.43612 26.3586 11.0192 27.4667 13.6477 27.4667C18.9944 27.4667 23.8632 23.1542 23.8632 13.6609C23.8333 4.9761 18.9048 0.244385 13.6776 0.244385ZM11.8854 20.8782C10.1231 20.8782 9.07768 20.2493 8.36081 19.4707L8.33095 8.36017C9.10756 7.49169 10.1829 6.89274 11.8854 6.89274C14.6036 6.89274 16.4854 9.94739 16.4854 13.8705C16.4854 17.8835 14.6334 20.8782 11.8854 20.8782Z" fill="#32325D"/>
</svg>
