<svg width="123" height="25" viewBox="0 0 123 25" fill="none" xmlns="http://www.w3.org/2000/svg">
<path d="M13.0066 16.071L11.9933 18.9379H11.9089C11.74 18.2915 11.4304 17.3077 10.9238 16.1272L5.49165 2.49502H0.172119V24.2222H3.69033V10.8149C3.69033 9.97163 3.69033 9.01597 3.66218 7.83545C3.63404 7.24519 3.57775 6.79547 3.5496 6.45818H3.63404C3.80291 7.30141 3.99993 7.91978 4.14066 8.31328L10.6705 24.1659H13.1473L19.6208 8.17274C19.7615 7.80734 19.9022 7.07655 20.043 6.45818H20.1274C20.043 8.06031 19.9867 9.4938 19.9585 10.3651V24.1378H23.7019V2.4388H18.5794L13.0066 16.071ZM27.2483 8.56625H30.9072V24.1378H27.2483V8.56625ZM29.1059 1.98908C28.4867 1.98908 27.9801 2.21394 27.5579 2.60745C27.1357 3.00095 26.9105 3.50689 26.9105 4.12525C26.9105 4.71551 27.1357 5.22145 27.5579 5.61495C27.9801 6.00846 28.4867 6.20521 29.1059 6.20521C29.7251 6.20521 30.2599 5.98035 30.6539 5.61495C31.0761 5.22145 31.3013 4.71551 31.3013 4.12525C31.3013 3.535 31.0761 3.02906 30.6539 2.60745C30.288 2.21394 29.7532 1.98908 29.1059 1.98908ZM43.8824 8.42571C43.2069 8.28517 42.5032 8.20085 41.8277 8.20085C40.1671 8.20085 38.6473 8.56625 37.3807 9.29705C36.1142 10.0278 35.1009 11.0397 34.4536 12.3046C33.7781 13.5975 33.4403 15.0872 33.4403 16.8018C33.4403 18.2915 33.7781 19.6125 34.4254 20.8211C35.0728 22.0017 35.9734 22.9573 37.1837 23.6038C38.3377 24.2503 39.6887 24.5876 41.2085 24.5876C42.9536 24.5876 44.4453 24.2222 45.6274 23.5476L45.6556 23.5195V20.1466L45.5148 20.259C44.9801 20.6525 44.3609 20.9898 43.7416 21.1865C43.0943 21.4114 42.5032 21.5238 41.9966 21.5238C40.533 21.5238 39.3791 21.1022 38.5628 20.1747C37.7185 19.2752 37.2963 18.0385 37.2963 16.4926C37.2963 14.8905 37.7185 13.6256 38.591 12.6981C39.4635 11.7705 40.6175 11.2927 42.0248 11.2927C43.2069 11.2927 44.4171 11.6862 45.5148 12.4732L45.6556 12.5856V9.01597L45.6274 8.98786C45.1489 8.79111 44.6142 8.56625 43.8824 8.42571ZM55.9569 8.31328C55.0562 8.31328 54.2118 8.59436 53.4801 9.18462C52.8609 9.69055 52.4387 10.4213 52.0728 11.2927H52.0446V8.56625H48.3857V24.1378H52.0446V16.1834C52.0446 14.8342 52.3261 13.7099 52.9453 12.8948C53.5645 12.0516 54.3526 11.63 55.3095 11.63C55.6473 11.63 55.985 11.7143 56.4072 11.7705C56.8012 11.8829 57.0827 11.9954 57.2797 12.1359L57.4205 12.2483V8.59436L57.336 8.56625C57.0827 8.3976 56.5761 8.31328 55.9569 8.31328ZM65.9205 8.22896C63.3592 8.22896 61.3046 8.98786 59.8691 10.4776C58.4056 11.9673 57.7019 14.0191 57.7019 16.605C57.7019 19.0223 58.4337 20.9898 59.841 22.4233C61.2483 23.8287 63.1622 24.5595 65.5546 24.5595C68.0595 24.5595 70.0579 23.8005 71.4933 22.2827C72.9569 20.7649 73.6605 18.7412 73.6605 16.2396C73.6605 13.7661 72.985 11.7986 71.6059 10.3651C70.283 8.93165 68.341 8.22896 65.9205 8.22896ZM68.8476 20.2028C68.1721 21.0741 67.1026 21.4957 65.7797 21.4957C64.4569 21.4957 63.3873 21.0741 62.6274 20.1466C61.8675 19.2752 61.5016 18.0104 61.5016 16.4083C61.5016 14.7499 61.8956 13.4851 62.6274 12.5856C63.3873 11.6862 64.4287 11.2365 65.7516 11.2365C67.0463 11.2365 68.0595 11.6581 68.7913 12.5294C69.5231 13.4007 69.9171 14.6656 69.9171 16.3239C69.8608 18.0104 69.5512 19.3314 68.8476 20.2028ZM81.8228 15.031C80.6688 14.5532 79.937 14.1878 79.5993 13.8786C79.3178 13.5975 79.1771 13.204 79.1771 12.6981C79.1771 12.2764 79.3459 11.8548 79.7681 11.5738C80.1903 11.2927 80.6688 11.1521 81.3724 11.1521C81.9916 11.1521 82.639 11.2646 83.2582 11.4332C83.8774 11.6019 84.4403 11.8548 84.8906 12.1921L85.0314 12.3046V8.87543L84.9469 8.84732C84.5247 8.67868 83.9618 8.51003 83.2863 8.3695C82.6108 8.25707 81.9916 8.20085 81.485 8.20085C79.74 8.20085 78.3046 8.62246 77.1787 9.55001C76.0529 10.4213 75.5181 11.6019 75.5181 12.9791C75.5181 13.7099 75.6307 14.3564 75.884 14.8904C76.1373 15.4245 76.5032 15.9304 77.0099 16.352C77.5165 16.7456 78.2483 17.1953 79.2615 17.6169C80.1059 17.9823 80.7532 18.2634 81.1473 18.4882C81.5413 18.7131 81.7946 18.966 81.9916 19.1628C82.1324 19.3877 82.2168 19.6687 82.2168 20.0341C82.2168 21.0741 81.4287 21.58 79.8244 21.58C79.2052 21.58 78.5579 21.4676 77.7979 21.2147C77.038 20.9617 76.3344 20.5963 75.7433 20.1747L75.6026 20.0622V23.6319L75.687 23.66C76.2218 23.913 76.8691 24.0816 77.6572 24.2784C78.4453 24.4189 79.1489 24.5313 79.7681 24.5313C81.6539 24.5313 83.2019 24.1097 84.2996 23.1822C85.4254 22.2827 86.0165 21.1303 86.0165 19.6406C86.0165 18.6006 85.735 17.6731 85.1158 16.9704C84.2996 16.2958 83.2863 15.5931 81.8228 15.031ZM95.6704 8.22896C93.1092 8.22896 91.0546 8.98786 89.6191 10.4776C88.1837 11.9673 87.4519 14.0191 87.4519 16.605C87.4519 19.0223 88.1837 20.9898 89.591 22.4233C90.9983 23.8287 92.9122 24.5595 95.3046 24.5595C97.8095 24.5595 99.8079 23.8005 101.243 22.2827C102.707 20.7649 103.411 18.7412 103.411 16.2396C103.411 13.7661 102.735 11.7986 101.356 10.3651C100.033 8.93165 98.091 8.22896 95.6704 8.22896ZM98.5695 20.2028C97.894 21.0741 96.8244 21.4957 95.5016 21.4957C94.1506 21.4957 93.1092 21.0741 92.3493 20.1466C91.5893 19.2752 91.2234 18.0104 91.2234 16.4083C91.2234 14.7499 91.6175 13.4851 92.3493 12.5856C93.1092 11.6862 94.1506 11.2365 95.4734 11.2365C96.74 11.2365 97.7814 11.6581 98.5132 12.5294C99.2449 13.4007 99.639 14.6656 99.639 16.3239C99.639 18.0104 99.2731 19.3314 98.5695 20.2028ZM122.972 11.5738V8.56625H119.285V3.95661L119.172 3.98472L115.682 5.0247L115.598 5.0528V8.56625H110.081V6.59872C110.081 5.69928 110.306 4.99659 110.7 4.54687C111.094 4.09715 111.685 3.87229 112.417 3.87229C112.924 3.87229 113.459 3.98472 114.05 4.23768L114.19 4.32201V1.14585L114.106 1.11775C113.599 0.9491 112.924 0.83667 112.051 0.83667C110.954 0.83667 109.997 1.08964 109.124 1.51125C108.252 1.98908 107.604 2.63555 107.126 3.50689C106.647 4.35011 106.394 5.30577 106.394 6.40197V8.56625H103.833V11.5456H106.394V24.1378H110.081V11.5738H115.598V19.5844C115.598 22.873 117.146 24.5313 120.242 24.5313C120.748 24.5313 121.283 24.447 121.79 24.3627C122.324 24.2503 122.718 24.1097 122.944 23.9973L122.972 23.9692V20.9617L122.831 21.0741C122.606 21.2147 122.409 21.3271 122.071 21.4114C121.79 21.4957 121.536 21.5238 121.339 21.5238C120.608 21.5238 120.101 21.3552 119.735 20.9336C119.397 20.5401 119.228 19.8936 119.228 18.9379V11.5738H122.972Z" fill="#737373"/>
</svg>
