<svg width="30" height="32" viewBox="0 0 30 32" fill="none" xmlns="http://www.w3.org/2000/svg">
<path d="M15.6071 27.0058C9.4895 27.0058 4.70057 22.0339 4.70057 15.8706C4.70057 9.70729 9.4895 4.73545 15.6071 4.73545C18.9068 4.73545 21.3158 6.0446 23.0971 7.72149L26.0318 4.76486C23.5497 2.3672 20.2354 0.543213 15.6071 0.543213C7.22644 0.543213 0.174438 7.4273 0.174438 15.8706C0.174438 24.3139 7.22644 31.198 15.6071 31.198C20.1332 31.198 23.5497 29.6976 26.2216 26.9028C28.9665 24.1374 29.8133 20.2541 29.8133 17.1062C29.8133 16.1207 29.6965 15.1057 29.5651 14.3555H15.6071V18.4448H25.55C25.258 21.0042 24.4549 22.7547 23.2723 23.9462C21.8415 25.4024 19.5784 27.0058 15.6071 27.0058Z" fill="#3686F7"/>
</svg>
