<svg width="14" height="6" viewBox="0 0 14 6" fill="none" xmlns="http://www.w3.org/2000/svg">
<path d="M13.072 3.01821C11.4457 1.40703 9.11464 0.406219 6.98827 0.406219C6.98802 0.406219 6.98758 0.406219 6.98733 0.406219H6.89727C6.8969 0.406219 6.89671 0.406219 6.89633 0.406219C4.7699 0.406219 2.43865 1.40709 0.812461 3.01821C0.322087 3.50409 0.318399 4.29552 0.804274 4.78596C1.04871 5.03265 1.37046 5.15621 1.69227 5.15621C2.01021 5.15621 2.32827 5.03565 2.57196 4.79421C3.72965 3.64721 5.42696 2.90621 6.89646 2.90621C6.89665 2.90621 6.89689 2.90621 6.89708 2.90621H6.98752C6.98777 2.90621 6.98783 2.90621 6.98808 2.90621C8.45739 2.90621 10.1548 3.64728 11.3124 4.79421C11.8028 5.28002 12.5943 5.27652 13.0801 4.78596C13.5661 4.29559 13.5624 3.50409 13.072 3.01821Z" fill="#10375C"/>
</svg>
