<svg width="77" height="28" viewBox="0 0 77 28" fill="none" xmlns="http://www.w3.org/2000/svg">
<path d="M34.6406 8.86019C29.3672 8.86019 25.1484 13.0631 25.1484 18.3167C25.1484 23.5702 29.3672 27.7731 34.6406 27.7731C39.9141 27.7731 44.1328 23.5702 44.1328 18.3167C44.1328 13.0631 39.9141 8.86019 34.6406 8.86019ZM34.6406 23.9205C31.5938 23.9205 29.0156 21.4688 29.0156 18.3167C29.0156 15.1645 31.4766 12.7128 34.6406 12.7128C37.6875 12.7128 40.2656 15.1645 40.2656 18.1999C40.2656 21.3521 37.8047 23.9205 34.6406 23.9205ZM55.7344 13.4133C53.0391 13.4133 50.8125 15.6315 50.8125 18.3167V27.3061H46.7109V9.44392H50.8125V12.2458C51.9844 10.4946 53.9766 9.44392 56.0859 9.44392H57.375V13.4133H55.7344ZM14.4844 9.44392L17.5312 21.819L20.9297 9.44392H24.9141L19.7578 27.3061H15.6562L12.4922 14.8143L9.32812 27.3061H5.22656L0.0703125 9.44392H4.05468L7.45312 21.819L10.6172 9.44392H14.4844ZM69.3281 17.6162C72.375 15.9817 74.1328 12.8296 74.1328 9.32718H70.1484C70.1484 12.3626 67.6875 14.6975 64.7578 14.6975H64.1719V0.804688H60.0703V27.3061H64.1719V18.9004H64.6406C65.1094 18.9004 65.5781 19.1339 65.8125 19.4841L71.5547 27.3061H76.4766L69.3281 17.6162Z" fill="black"/>
</svg>
