<svg width="20" height="28" viewBox="0 0 20 28" fill="none" xmlns="http://www.w3.org/2000/svg">
<path fill-rule="evenodd" clip-rule="evenodd" d="M8.42665 8.36017C8.42665 7.19221 9.38248 6.743 10.9656 6.743C13.2357 6.743 16.1032 7.43179 18.3733 8.65964V1.62197C15.8941 0.633702 13.4448 0.244385 10.9656 0.244385C4.90203 0.244385 0.869629 3.41882 0.869629 8.71954C0.869629 16.9851 12.2201 15.6674 12.2201 19.2311C12.2201 20.6087 11.0253 21.0579 9.35261 21.0579C6.87343 21.0579 3.70725 20.0397 1.19819 18.6621V25.7896C3.97607 26.9875 6.78382 27.4966 9.35261 27.4966C15.5655 27.4966 19.8369 24.412 19.8369 19.0514C19.807 10.1271 8.42665 11.7143 8.42665 8.36017Z" fill="#32325D"/>
</svg>
