<svg width="23" height="28" viewBox="0 0 23 28" fill="none" xmlns="http://www.w3.org/2000/svg">
<path fill-rule="evenodd" clip-rule="evenodd" d="M22.4004 13.9604C22.4004 6.29379 18.6966 0.244385 11.6175 0.244385C4.5085 0.244385 0.207275 6.29379 0.207275 13.9005C0.207275 22.9147 5.28512 27.4667 12.5733 27.4667C16.1278 27.4667 18.8161 26.6581 20.8472 25.5201V19.5306C18.8161 20.5488 16.4862 21.1777 13.5291 21.1777C10.6318 21.1777 8.06299 20.1595 7.73443 16.6257H22.3407C22.3407 16.2364 22.4004 14.6791 22.4004 13.9604ZM7.64482 11.1153C7.64482 7.73127 9.70582 6.32374 11.5876 6.32374C13.4097 6.32374 15.3512 7.73127 15.3512 11.1153H7.64482Z" fill="#32325D"/>
</svg>
