<svg width="42" height="30" viewBox="0 0 42 30" fill="none" xmlns="http://www.w3.org/2000/svg">
<path d="M32.3438 2.86022C27.8906 2.86022 24.4922 5.77888 23.0859 10.4487C20.9766 7.29658 19.4531 3.79419 18.3984 0.175049H13.5938V12.5502C13.5938 15.0018 11.6016 16.9865 9.14062 16.9865C6.67969 16.9865 4.6875 15.0018 4.6875 12.5502V0.291795H0V12.6669C0 17.687 4.10156 21.8899 9.25781 21.8899C14.4141 21.8899 18.5156 17.8038 18.5156 12.6669V10.5655C19.4531 12.5502 20.625 14.4181 21.9141 16.1693L18.9844 29.8286H23.9062L26.0156 19.9052C27.8906 21.1894 30.1172 21.8899 32.4609 21.8899C37.7344 21.8899 41.9531 17.687 41.9531 12.4334C41.8359 7.17983 37.6172 2.86022 32.3438 2.86022ZM32.3438 17.1033C30.3516 16.9865 28.4766 16.2861 26.9531 15.0018L27.3047 13.1339V13.0172C27.6562 11.0325 28.8281 7.64682 32.2266 7.64682C34.8047 7.53007 36.9141 9.63151 37.0312 12.1999C37.1484 14.7683 35.0391 16.8698 32.4609 16.9865L32.3438 17.1033Z" fill="#6FDA44"/>
</svg>
