<svg width="11" height="10" viewBox="0 0 11 10" fill="none" xmlns="http://www.w3.org/2000/svg">
<path d="M5.45039 0.435077C4.54282 0.432502 3.65494 0.699444 2.89926 1.20205C2.14357 1.70465 1.5541 2.4203 1.2056 3.25828C0.857103 4.09626 0.765258 5.01883 0.941684 5.90907C1.11811 6.79932 1.55488 7.61714 2.19663 8.25888C2.83837 8.90062 3.65621 9.33739 4.54646 9.51381C5.43671 9.69024 6.3593 9.59837 7.19729 9.24988C8.03527 8.90138 8.75095 8.31194 9.25356 7.55626C9.75617 6.80058 10.0231 5.91269 10.0205 5.00514C10.0205 3.79308 9.53904 2.63068 8.68197 1.77363C7.82491 0.916573 6.66246 0.435077 5.45039 0.435077Z" fill="gray"/>
</svg>
