<svg width="19" height="30" viewBox="0 0 19 30" fill="none" xmlns="http://www.w3.org/2000/svg">
<path d="M14.8574 1.42853H18.9163V18.9035C18.9163 26.1553 14.6676 29.1414 9.64504 29.1414C4.91451 29.1414 2.06743 25.9347 1.0016 23.3311L4.72471 21.7719C5.39633 23.3752 7.01697 25.2728 9.64504 25.2728C12.8717 25.2728 14.8574 23.2576 14.8574 19.4919V18.0798H14.7114C13.7478 19.2565 11.9081 20.3156 9.57204 20.3156C4.69551 20.3156 0.227783 16.0352 0.227783 10.5191C0.227783 4.97354 4.69551 0.648926 9.57204 0.648926C11.8935 0.648926 13.7478 1.69331 14.7114 2.84065H14.8574V1.42853ZM15.1494 10.5191C15.1494 7.04759 12.8571 4.51755 9.93705 4.51755C6.98777 4.51755 4.5057 7.04759 4.5057 10.5191C4.5057 13.9464 6.98777 16.4323 9.93705 16.4323C12.8571 16.447 15.1494 13.9464 15.1494 10.5191Z" fill="#3686F7"/>
</svg>
