<svg width="19" height="21" viewBox="0 0 19 21" fill="none" xmlns="http://www.w3.org/2000/svg">
<path d="M15.2623 13.7259L18.5912 15.9618C17.5108 17.5651 14.9265 20.3158 10.4588 20.3158C4.91061 20.3158 0.778687 15.9912 0.778687 10.4898C0.778687 4.63541 4.95442 0.663818 9.99157 0.663818C15.0579 0.663818 17.54 4.72366 18.343 6.91539L18.781 8.03332L5.72824 13.4759C6.72107 15.447 8.26871 16.4472 10.4588 16.4472C12.6488 16.4472 14.1673 15.3587 15.2623 13.7259ZM5.02742 10.1809L13.7439 6.53294C13.2621 5.31205 11.8312 4.44418 10.123 4.44418C7.9475 4.44418 4.92522 6.38585 5.02742 10.1809Z" fill="#FF302F"/>
</svg>
